<svg width="25" height="25" viewBox="0 0 25 25" fill="none" xmlns="http://www.w3.org/2000/svg">
<g clip-path="url(#clip0_135_2606)">
<path d="M14.7866 12.5001L24.5262 2.76054C24.677 2.61038 24.7966 2.43179 24.8779 2.2351C24.9593 2.03842 25.0008 1.82755 25.0001 1.61471C25.0028 1.40235 24.9621 1.19169 24.8806 0.995572C24.7991 0.799458 24.6785 0.622016 24.5262 0.474081C24.3782 0.321711 24.2008 0.201098 24.0047 0.119608C23.8086 0.0381182 23.5979 -0.0025381 23.3855 0.000122649C23.1727 -0.000571335 22.9618 0.0409617 22.7651 0.122317C22.5685 0.203673 22.3899 0.323235 22.2397 0.474081L12.5001 10.2137L2.76054 0.474081C2.61038 0.323235 2.43179 0.203673 2.2351 0.122317C2.03842 0.0409617 1.82755 -0.000571335 1.61471 0.000122649C1.40235 -0.0025381 1.19169 0.0381182 0.995572 0.119608C0.799458 0.201098 0.622016 0.321711 0.474081 0.474081C0.321711 0.622016 0.201098 0.799458 0.119608 0.995572C0.0381182 1.19169 -0.0025381 1.40235 0.000122649 1.61471C-0.000571335 1.82755 0.0409617 2.03842 0.122317 2.2351C0.203673 2.43179 0.323235 2.61038 0.474081 2.76054L10.2137 12.5001L0.474081 22.2397C0.323235 22.3899 0.203673 22.5685 0.122317 22.7651C0.0409617 22.9618 -0.000571335 23.1727 0.000122649 23.3855C-0.0025381 23.5979 0.0381182 23.8086 0.119608 24.0047C0.201098 24.2008 0.321711 24.3782 0.474081 24.5262C0.622016 24.6785 0.799458 24.7991 0.995572 24.8806C1.19169 24.9621 1.40235 25.0028 1.61471 25.0001C1.82755 25.0008 2.03842 24.9593 2.2351 24.8779C2.43179 24.7966 2.61038 24.677 2.76054 24.5262L12.5001 14.7866L22.2397 24.5262C22.3899 24.677 22.5685 24.7966 22.7651 24.8779C22.9618 24.9593 23.1727 25.0008 23.3855 25.0001C23.8133 24.9987 24.2232 24.8282 24.5257 24.5257C24.8282 24.2232 24.9987 23.8133 25.0001 23.3855C25.0008 23.1727 24.9593 22.9618 24.8779 22.7651C24.7966 22.5685 24.677 22.3899 24.5262 22.2397L14.7866 12.5001Z" fill="white"/>
</g>
<defs>
<clipPath id="clip0_135_2606">
<rect width="25" height="25" fill="white"/>
</clipPath>
</defs>
</svg>
