<svg width="80" height="34" viewBox="0 0 80 34" fill="none" xmlns="http://www.w3.org/2000/svg">
<path d="M10.0865 18.0657H3.60328L0.219971 33.626H7.2035C12.2282 33.626 13.7197 30.8597 13.7373 28.6769C13.7527 26.7751 12.6731 25.9971 11.6539 25.6621L11.6872 25.4892C13.1162 25.1759 14.8503 24.0088 14.8697 21.61C14.8883 19.2975 13.0992 18.0657 10.0865 18.0657ZM4.82327 30.4491L5.50827 27.3586H8.26549C9.31941 27.3586 9.94401 27.7909 9.93676 28.6877C9.92925 29.617 9.21991 30.4491 7.72952 30.4491H4.82327ZM6.19397 24.1817L6.83517 21.2426H9.37948C10.4334 21.2426 11.0157 21.6424 11.0088 22.496C11.0016 23.3821 10.3351 24.1817 8.8128 24.1817H6.19397Z" fill="white"/>
<path d="M16.8924 18.0657L13.509 33.626H24.6574L25.3979 30.2546H18.2949L20.9377 18.0657H16.8924Z" fill="white"/>
<path d="M32.5235 18.0657L24.8952 33.3018L24.8287 33.626H28.6718L30.167 30.3842H34.7127L34.8036 33.626H38.487L38.5535 33.3018L37.5482 18.0657H32.5235ZM31.6838 27.1209L34.3059 21.4479H34.4762L34.622 27.1209H31.6838Z" fill="white"/>
<path d="M46.2064 18.0657H41.8311L38.4478 33.626H43.8345C50.6157 33.626 52.8389 28.5689 52.8739 24.2466C52.9063 20.2376 50.2731 18.0657 46.2064 18.0657ZM43.1477 30.341L45.0834 21.3506H46.0521C47.9258 21.3506 48.9926 22.388 48.9766 24.3654C48.9533 27.2506 47.5018 30.341 44.3933 30.341H43.1477Z" fill="white"/>
<path d="M55.1202 18.0657L51.7368 33.626H63.3406L64.0263 30.4491H56.3827L57.0569 27.3802H63.4869L64.1726 24.2034H57.7533L58.3946 21.2426H65.8892L66.5749 18.0657H55.1202Z" fill="white"/>
<path d="M16.3256 0.0551758L15.6067 3.38335H20.014L17.3495 15.6155H21.3523L24.0167 3.38335H28.424L29.1429 0.0551758H16.3256Z" fill="white"/>
<path d="M35.9275 0.0551758H29.6359L26.2526 15.6155H30.1702L31.4971 9.49941H31.71L34.8649 15.6155H38.8357L38.9022 15.2913L35.7232 9.52103C39.6009 9.19685 41.0348 6.96006 41.0567 4.24781C41.0784 1.56798 39.0999 0.0551758 35.9275 0.0551758ZM32.1163 6.64669L32.8678 3.23207H35.3695C36.5831 3.23207 37.2712 3.71833 37.2635 4.66924C37.2555 5.66337 36.5449 6.64669 34.7777 6.64669H32.1163Z" fill="white"/>
<path d="M45.778 0.0551758L38.1497 15.2913L38.0832 15.6155H41.9263L43.4216 12.3737H47.9673L48.0582 15.6155H51.7416L51.8081 15.2913L50.8028 0.0551758H45.778ZM44.9384 9.11041L47.5604 3.43738H47.7308L47.8766 9.11041H44.9384Z" fill="white"/>
<path d="M59.461 0.0551758H55.0856L51.7023 15.6155H57.089C63.8703 15.6155 66.0935 10.5584 66.1284 6.23607C66.1608 2.22713 63.5276 0.0551758 59.461 0.0551758ZM56.4023 12.3305L58.3379 3.34013H59.3067C61.1803 3.34013 62.2471 4.37748 62.2312 6.35494C62.2078 9.24008 60.7564 12.3305 57.6478 12.3305H56.4023Z" fill="white"/>
<path d="M68.3747 0.0551758L64.9914 15.6155H76.5951L77.2808 12.4386H69.6373L70.3115 9.36975H76.7414L77.4271 6.19285H71.0078L71.6492 3.23207H79.1437L79.8294 0.0551758H68.3747Z" fill="white"/>
</svg>
